<?xml version="1.0" encoding="UTF-8" standalone="no"?>
<!DOCTYPE svg PUBLIC "-//W3C//DTD SVG 1.1//EN"
 "http://www.w3.org/Graphics/SVG/1.1/DTD/svg11.dtd">
<!-- Generated by graphviz version 2.43.0 (0)
 -->
<!-- Title: G Pages: 1 -->
<svg width="1025pt" height="1289pt"
 viewBox="0.00 0.00 1024.86 1288.78" xmlns="http://www.w3.org/2000/svg" xmlns:xlink="http://www.w3.org/1999/xlink">
<g id="graph0" class="graph" transform="scale(1 1) rotate(0) translate(4 1284.78)">
<title>G</title>
<polygon fill="white" stroke="transparent" points="-4,4 -4,-1284.78 1020.86,-1284.78 1020.86,4 -4,4"/>
<!-- n0 -->
<g id="node1" class="node">
<title>n0</title>
<ellipse fill="none" stroke="black" cx="131.52" cy="-1211.48" rx="131.54" ry="48.17"/>
<text text-anchor="middle" x="131.52" y="-1230.28" font-family="Times,serif" font-size="14.00">0:x:input</text>
<text text-anchor="middle" x="131.52" y="-1215.28" font-family="Times,serif" font-size="14.00">shape=[1, 2]</text>
<text text-anchor="middle" x="131.52" y="-1200.28" font-family="Times,serif" font-size="14.00">value=[[ 1.,&#45;2.]]</text>
<text text-anchor="middle" x="131.52" y="-1185.28" font-family="Times,serif" font-size="14.00">grad=[[0.0002,0.0007]]</text>
</g>
<!-- n2 -->
<g id="node3" class="node">
<title>n2</title>
<ellipse fill="none" stroke="black" cx="295.52" cy="-1058.1" rx="183.28" ry="48.17"/>
<text text-anchor="middle" x="295.52" y="-1076.9" font-family="Times,serif" font-size="14.00">2:t2:binop:@</text>
<text text-anchor="middle" x="295.52" y="-1061.9" font-family="Times,serif" font-size="14.00">shape=[1, 3]</text>
<text text-anchor="middle" x="295.52" y="-1046.9" font-family="Times,serif" font-size="14.00">value=[[&#45;0.0084, 0.0939,&#45;0.0083]]</text>
<text text-anchor="middle" x="295.52" y="-1031.9" font-family="Times,serif" font-size="14.00">grad=[[&#45;0. &#160;&#160;,&#45;0.014, 0. &#160;&#160;]]</text>
</g>
<!-- n0&#45;&gt;n2 -->
<g id="edge1" class="edge">
<title>n0&#45;&gt;n2</title>
<path fill="none" stroke="black" d="M179.4,-1166.29C197.93,-1149.19 219.29,-1129.47 238.59,-1111.65"/>
<polygon fill="black" stroke="black" points="241.19,-1114.02 246.16,-1104.66 236.44,-1108.87 241.19,-1114.02"/>
</g>
<!-- n1 -->
<g id="node2" class="node">
<title>n1</title>
<ellipse fill="none" stroke="black" cx="460.52" cy="-1211.48" rx="179.71" ry="69.09"/>
<text text-anchor="middle" x="460.52" y="-1245.28" font-family="Times,serif" font-size="14.00">1:W1:param</text>
<text text-anchor="middle" x="460.52" y="-1230.28" font-family="Times,serif" font-size="14.00">shape=[2, 3]</text>
<text text-anchor="middle" x="460.52" y="-1215.28" font-family="Times,serif" font-size="14.00">value=[[ 0.0126,&#45;0.0132, 0.064 ],</text>
<text text-anchor="middle" x="460.52" y="-1200.28" font-family="Times,serif" font-size="14.00"> [ 0.0105,&#45;0.0536, 0.0362]]</text>
<text text-anchor="middle" x="460.52" y="-1185.28" font-family="Times,serif" font-size="14.00">grad=[[ 0. &#160;&#160;,&#45;0.014, 0. &#160;&#160;],</text>
<text text-anchor="middle" x="460.52" y="-1170.28" font-family="Times,serif" font-size="14.00"> [ 0. &#160;&#160;, 0.028, 0. &#160;&#160;]]</text>
</g>
<!-- n1&#45;&gt;n2 -->
<g id="edge2" class="edge">
<title>n1&#45;&gt;n2</title>
<path fill="none" stroke="black" d="M391.5,-1147.16C378.63,-1135.35 365.31,-1123.13 352.84,-1111.69"/>
<polygon fill="black" stroke="black" points="354.93,-1108.86 345.2,-1104.67 350.2,-1114.01 354.93,-1108.86"/>
</g>
<!-- n4 -->
<g id="node5" class="node">
<title>n4</title>
<ellipse fill="none" stroke="black" cx="462.52" cy="-925.94" rx="183.28" ry="48.17"/>
<text text-anchor="middle" x="462.52" y="-944.74" font-family="Times,serif" font-size="14.00">4:t4:binop:+</text>
<text text-anchor="middle" x="462.52" y="-929.74" font-family="Times,serif" font-size="14.00">shape=[1, 3]</text>
<text text-anchor="middle" x="462.52" y="-914.74" font-family="Times,serif" font-size="14.00">value=[[&#45;0.0084, 0.0939,&#45;0.0083]]</text>
<text text-anchor="middle" x="462.52" y="-899.74" font-family="Times,serif" font-size="14.00">grad=[[&#45;0. &#160;&#160;,&#45;0.014, 0. &#160;&#160;]]</text>
</g>
<!-- n2&#45;&gt;n4 -->
<g id="edge3" class="edge">
<title>n2&#45;&gt;n4</title>
<path fill="none" stroke="black" d="M352.99,-1012.31C367.16,-1001.26 382.45,-989.35 396.97,-978.03"/>
<polygon fill="black" stroke="black" points="399.21,-980.72 404.94,-971.81 394.91,-975.2 399.21,-980.72"/>
</g>
<!-- n3 -->
<g id="node4" class="node">
<title>n3</title>
<ellipse fill="none" stroke="black" cx="630.52" cy="-1058.1" rx="133.79" ry="48.17"/>
<text text-anchor="middle" x="630.52" y="-1076.9" font-family="Times,serif" font-size="14.00">3:b1:param</text>
<text text-anchor="middle" x="630.52" y="-1061.9" font-family="Times,serif" font-size="14.00">shape=[3]</text>
<text text-anchor="middle" x="630.52" y="-1046.9" font-family="Times,serif" font-size="14.00">value=[0.,0.,0.]</text>
<text text-anchor="middle" x="630.52" y="-1031.9" font-family="Times,serif" font-size="14.00">grad=[ 0. &#160;&#160;,&#45;0.014, 0. &#160;&#160;]</text>
</g>
<!-- n3&#45;&gt;n4 -->
<g id="edge4" class="edge">
<title>n3&#45;&gt;n4</title>
<path fill="none" stroke="black" d="M575.05,-1014.12C560.07,-1002.52 543.72,-989.85 528.25,-977.86"/>
<polygon fill="black" stroke="black" points="530.29,-975.02 520.24,-971.66 526,-980.55 530.29,-975.02"/>
</g>
<!-- n5 -->
<g id="node6" class="node">
<title>n5</title>
<ellipse fill="none" stroke="black" cx="462.52" cy="-793.77" rx="176.14" ry="48.17"/>
<text text-anchor="middle" x="462.52" y="-812.57" font-family="Times,serif" font-size="14.00">5:h:rule:relu</text>
<text text-anchor="middle" x="462.52" y="-797.57" font-family="Times,serif" font-size="14.00">shape=[1, 3]</text>
<text text-anchor="middle" x="462.52" y="-782.57" font-family="Times,serif" font-size="14.00">value=[[0. &#160;&#160;&#160;,0.0939,0. &#160;&#160;&#160;]]</text>
<text text-anchor="middle" x="462.52" y="-767.57" font-family="Times,serif" font-size="14.00">grad=[[&#45;0.0194,&#45;0.014 , 0.0105]]</text>
</g>
<!-- n4&#45;&gt;n5 -->
<g id="edge5" class="edge">
<title>n4&#45;&gt;n5</title>
<path fill="none" stroke="black" d="M462.52,-877.57C462.52,-869.31 462.52,-860.62 462.52,-852.12"/>
<polygon fill="black" stroke="black" points="466.02,-851.88 462.52,-841.88 459.02,-851.88 466.02,-851.88"/>
</g>
<!-- n6 -->
<g id="node7" class="node">
<title>n6</title>
<ellipse fill="none" stroke="black" cx="462.52" cy="-619.18" rx="179.71" ry="48.17"/>
<text text-anchor="middle" x="462.52" y="-637.98" font-family="Times,serif" font-size="14.00">6:z:rule:tanh</text>
<text text-anchor="middle" x="462.52" y="-622.98" font-family="Times,serif" font-size="14.00">shape=[1, 3]</text>
<text text-anchor="middle" x="462.52" y="-607.98" font-family="Times,serif" font-size="14.00">value=[[0. &#160;&#160;&#160;,0.0936,0. &#160;&#160;&#160;]]</text>
<text text-anchor="middle" x="462.52" y="-592.98" font-family="Times,serif" font-size="14.00">grad=[[&#45;0.0194,&#45;0.0141, 0.0105]]</text>
</g>
<!-- n5&#45;&gt;n6 -->
<g id="edge6" class="edge">
<title>n5&#45;&gt;n6</title>
<path fill="none" stroke="black" d="M462.52,-745.61C462.52,-724.58 462.52,-699.63 462.52,-677.54"/>
<polygon fill="black" stroke="black" points="466.02,-677.28 462.52,-667.28 459.02,-677.28 466.02,-677.28"/>
</g>
<!-- n8 -->
<g id="node9" class="node">
<title>n8</title>
<ellipse fill="none" stroke="black" cx="610.52" cy="-444.58" rx="96.75" ry="48.17"/>
<text text-anchor="middle" x="610.52" y="-463.38" font-family="Times,serif" font-size="14.00">8:t8:binop:@</text>
<text text-anchor="middle" x="610.52" y="-448.38" font-family="Times,serif" font-size="14.00">shape=[1, 1]</text>
<text text-anchor="middle" x="610.52" y="-433.38" font-family="Times,serif" font-size="14.00">value=[[0.0089]]</text>
<text text-anchor="middle" x="610.52" y="-418.38" font-family="Times,serif" font-size="14.00">grad=[[&#45;0.1489]]</text>
</g>
<!-- n6&#45;&gt;n8 -->
<g id="edge7" class="edge">
<title>n6&#45;&gt;n8</title>
<path fill="none" stroke="black" d="M502.18,-571.92C522.03,-548.78 546.11,-520.7 566.53,-496.89"/>
<polygon fill="black" stroke="black" points="569.45,-498.86 573.3,-488.99 564.13,-494.31 569.45,-498.86"/>
</g>
<!-- n7 -->
<g id="node8" class="node">
<title>n7</title>
<ellipse fill="none" stroke="black" cx="759.52" cy="-619.18" rx="99.9" ry="90.52"/>
<text text-anchor="middle" x="759.52" y="-667.98" font-family="Times,serif" font-size="14.00">7:W2:param</text>
<text text-anchor="middle" x="759.52" y="-652.98" font-family="Times,serif" font-size="14.00">shape=[3, 1]</text>
<text text-anchor="middle" x="759.52" y="-637.98" font-family="Times,serif" font-size="14.00">value=[[ 0.1304],</text>
<text text-anchor="middle" x="759.52" y="-622.98" font-family="Times,serif" font-size="14.00"> [ 0.0947],</text>
<text text-anchor="middle" x="759.52" y="-607.98" font-family="Times,serif" font-size="14.00"> [&#45;0.0704]]</text>
<text text-anchor="middle" x="759.52" y="-592.98" font-family="Times,serif" font-size="14.00">grad=[[ 0. &#160;&#160;&#160;],</text>
<text text-anchor="middle" x="759.52" y="-577.98" font-family="Times,serif" font-size="14.00"> [&#45;0.0139],</text>
<text text-anchor="middle" x="759.52" y="-562.98" font-family="Times,serif" font-size="14.00"> [ 0. &#160;&#160;&#160;]]</text>
</g>
<!-- n7&#45;&gt;n8 -->
<g id="edge8" class="edge">
<title>n7&#45;&gt;n8</title>
<path fill="none" stroke="black" d="M698.49,-547.48C683.85,-530.52 668.49,-512.73 654.77,-496.84"/>
<polygon fill="black" stroke="black" points="657.37,-494.49 648.18,-489.21 652.07,-499.07 657.37,-494.49"/>
</g>
<!-- n10 -->
<g id="node11" class="node">
<title>n10</title>
<ellipse fill="none" stroke="black" cx="712.52" cy="-312.42" rx="96.75" ry="48.17"/>
<text text-anchor="middle" x="712.52" y="-331.22" font-family="Times,serif" font-size="14.00">10:t10:binop:+</text>
<text text-anchor="middle" x="712.52" y="-316.22" font-family="Times,serif" font-size="14.00">shape=[1, 1]</text>
<text text-anchor="middle" x="712.52" y="-301.22" font-family="Times,serif" font-size="14.00">value=[[0.0089]]</text>
<text text-anchor="middle" x="712.52" y="-286.22" font-family="Times,serif" font-size="14.00">grad=[[&#45;0.1489]]</text>
</g>
<!-- n8&#45;&gt;n10 -->
<g id="edge9" class="edge">
<title>n8&#45;&gt;n10</title>
<path fill="none" stroke="black" d="M645.05,-399.51C653.61,-388.59 662.86,-376.79 671.69,-365.53"/>
<polygon fill="black" stroke="black" points="674.61,-367.47 678.02,-357.44 669.1,-363.15 674.61,-367.47"/>
</g>
<!-- n9 -->
<g id="node10" class="node">
<title>n9</title>
<ellipse fill="none" stroke="black" cx="814.52" cy="-444.58" rx="89.19" ry="48.17"/>
<text text-anchor="middle" x="814.52" y="-463.38" font-family="Times,serif" font-size="14.00">9:b2:param</text>
<text text-anchor="middle" x="814.52" y="-448.38" font-family="Times,serif" font-size="14.00">shape=[1]</text>
<text text-anchor="middle" x="814.52" y="-433.38" font-family="Times,serif" font-size="14.00">value=[0.]</text>
<text text-anchor="middle" x="814.52" y="-418.38" font-family="Times,serif" font-size="14.00">grad=[&#45;0.1489]</text>
</g>
<!-- n9&#45;&gt;n10 -->
<g id="edge10" class="edge">
<title>n9&#45;&gt;n10</title>
<path fill="none" stroke="black" d="M780.27,-399.88C771.7,-388.94 762.43,-377.1 753.56,-365.79"/>
<polygon fill="black" stroke="black" points="756.12,-363.38 747.2,-357.67 750.61,-367.7 756.12,-363.38"/>
</g>
<!-- n11 -->
<g id="node12" class="node">
<title>n11</title>
<ellipse fill="none" stroke="black" cx="712.52" cy="-180.25" rx="99.9" ry="48.17"/>
<text text-anchor="middle" x="712.52" y="-199.05" font-family="Times,serif" font-size="14.00">11:y:rule:sigmoid</text>
<text text-anchor="middle" x="712.52" y="-184.05" font-family="Times,serif" font-size="14.00">shape=[1, 1]</text>
<text text-anchor="middle" x="712.52" y="-169.05" font-family="Times,serif" font-size="14.00">value=[[0.5022]]</text>
<text text-anchor="middle" x="712.52" y="-154.05" font-family="Times,serif" font-size="14.00">grad=[[&#45;0.5956]]</text>
</g>
<!-- n10&#45;&gt;n11 -->
<g id="edge11" class="edge">
<title>n10&#45;&gt;n11</title>
<path fill="none" stroke="black" d="M712.52,-264.05C712.52,-255.79 712.52,-247.1 712.52,-238.6"/>
<polygon fill="black" stroke="black" points="716.02,-238.36 712.52,-228.36 709.02,-238.36 716.02,-238.36"/>
</g>
<!-- n13 -->
<g id="node14" class="node">
<title>n13</title>
<ellipse fill="none" stroke="black" cx="817.52" cy="-48.08" rx="96.75" ry="48.17"/>
<text text-anchor="middle" x="817.52" y="-66.88" font-family="Times,serif" font-size="14.00">13:L:rule:mse</text>
<text text-anchor="middle" x="817.52" y="-51.88" font-family="Times,serif" font-size="14.00">shape=[1, 1]</text>
<text text-anchor="middle" x="817.52" y="-36.88" font-family="Times,serif" font-size="14.00">value=[[0.0887]]</text>
<text text-anchor="middle" x="817.52" y="-21.88" font-family="Times,serif" font-size="14.00">grad=[[1.]]</text>
</g>
<!-- n11&#45;&gt;n13 -->
<g id="edge12" class="edge">
<title>n11&#45;&gt;n13</title>
<path fill="none" stroke="black" d="M748.07,-135.18C756.88,-124.26 766.4,-112.46 775.49,-101.19"/>
<polygon fill="black" stroke="black" points="778.46,-103.09 782.01,-93.11 773.01,-98.69 778.46,-103.09"/>
</g>
<!-- n12 -->
<g id="node13" class="node">
<title>n12</title>
<ellipse fill="none" stroke="black" cx="923.52" cy="-180.25" rx="93.18" ry="48.17"/>
<text text-anchor="middle" x="923.52" y="-199.05" font-family="Times,serif" font-size="14.00">12:t:input</text>
<text text-anchor="middle" x="923.52" y="-184.05" font-family="Times,serif" font-size="14.00">shape=[1, 1]</text>
<text text-anchor="middle" x="923.52" y="-169.05" font-family="Times,serif" font-size="14.00">value=[[0.8]]</text>
<text text-anchor="middle" x="923.52" y="-154.05" font-family="Times,serif" font-size="14.00">grad=[[0.5956]]</text>
</g>
<!-- n12&#45;&gt;n13 -->
<g id="edge13" class="edge">
<title>n12&#45;&gt;n13</title>
<path fill="none" stroke="black" d="M887.93,-135.54C878.84,-124.38 868.98,-112.28 859.6,-100.76"/>
<polygon fill="black" stroke="black" points="862.23,-98.44 853.2,-92.9 856.8,-102.86 862.23,-98.44"/>
</g>
</g>
</svg>
